# ProBuilder 4.0.5
# https://unity3d.com/unity/features/worldbuilding/probuilder
# 28/01/2020 12:04:21

mtllib ./megacorp.mtl
o megacorp

g Cube (12)
v -339 -135 177
v -411 -135 177
v -339 144 177
v -411 144 177
v -411 -135 117
v -411 144 117
v -339 -135 117
v -339 144 117

vt 15 -81
vt -57 -81
vt 15 198
vt -57 198
vt 18 -81
vt -42 -81
vt 18 198
vt -42 198
vt 57 -81
vt -15 -81
vt 57 198
vt -15 198
vt 42 -81
vt -18 -81
vt 42 198
vt -18 198
vt -15 18
vt 57 18
vt -15 -42
vt 57 -42
vt 15 -42
vt -57 -42
vt 15 18
vt -57 18

vn 0 0 1
vn -1 0 0
vn 0 0 -1
vn 1 0 0
vn 0 1 0
vn 0 -1 0

g Cube (12)
usemtl Checker_ground
f 3/3/1 4/4/1 2/2/1 1/1/1
f 4/7/2 6/8/2 5/6/2 2/5/2
f 6/11/3 8/12/3 7/10/3 5/9/3
f 8/15/4 3/16/4 1/14/4 7/13/4
f 8/19/5 6/20/5 4/18/5 3/17/5
f 1/23/6 2/24/6 5/22/6 7/21/6

